<?xml version="1.0" encoding="UTF-8" standalone="no"?>
<svg
   width="23cm"
   height="13cm"
   viewBox="14 8 442 256.06061"
   version="1.1"
   id="svg56"
   sodipodi:docname="operation-principle-222.svg"
   inkscape:version="1.4 (e7c3feb100, 2024-10-09)"
   xmlns:inkscape="http://www.inkscape.org/namespaces/inkscape"
   xmlns:sodipodi="http://sodipodi.sourceforge.net/DTD/sodipodi-0.dtd"
   xmlns="http://www.w3.org/2000/svg"
   xmlns:svg="http://www.w3.org/2000/svg">
  <defs
     id="defs56" />
  <sodipodi:namedview
     id="namedview56"
     pagecolor="#ffffff"
     bordercolor="#000000"
     borderopacity="0.25"
     inkscape:showpageshadow="2"
     inkscape:pageopacity="0.0"
     inkscape:pagecheckerboard="false"
     inkscape:deskcolor="#d1d1d1"
     inkscape:document-units="cm"
     inkscape:zoom="0.70395202"
     inkscape:cx="422.61403"
     inkscape:cy="-34.093233"
     inkscape:window-width="1920"
     inkscape:window-height="1131"
     inkscape:window-x="0"
     inkscape:window-y="0"
     inkscape:window-maximized="1"
     inkscape:current-layer="svg56"
     showborder="true"
     showguides="true" />
  <g
     id="g29"
     transform="translate(-6.0869908,-402.99431)">
    <circle
       style="fill:none;fill-opacity:0;stroke:#000000;stroke-width:2"
       cx="410"
       cy="450"
       id="ellipse28"
       r="10" />
    <text
       font-size="6.77333px"
       style="font-style:normal;font-weight:normal;font-family:sans-serif;text-anchor:middle;fill:#000000"
       x="410"
       y="453.00699"
       id="text29"><tspan
         x="410"
         y="453.00699"
         id="tspan29" /></text>
  </g>
  <g
     id="g30"
     transform="translate(-6.0869908,-402.99431)">
    <circle
       style="fill:none;fill-opacity:0;stroke:#000000;stroke-width:2"
       cx="410"
       cy="490"
       id="ellipse29"
       r="10" />
    <text
       font-size="6.77333px"
       style="font-style:normal;font-weight:normal;font-family:sans-serif;text-anchor:middle;fill:#000000"
       x="410"
       y="493.00699"
       id="text30"><tspan
         x="410"
         y="493.00699"
         id="tspan30" /></text>
  </g>
  <g
     id="g31"
     transform="translate(-6.0869908,-402.99431)">
    <circle
       style="fill:none;fill-opacity:0;stroke:#000000;stroke-width:2"
       cx="410"
       cy="530"
       id="ellipse30"
       r="10" />
    <text
       font-size="6.77333px"
       style="font-style:normal;font-weight:normal;font-family:sans-serif;text-anchor:middle;fill:#000000"
       x="410"
       y="533.00702"
       id="text31"><tspan
         x="410"
         y="533.00702"
         id="tspan31" /></text>
  </g>
  <g
     id="g32"
     transform="translate(-6.0869908,-402.99431)">
    <circle
       style="fill:none;fill-opacity:0;stroke:#000000;stroke-width:2"
       cx="410"
       cy="570"
       id="ellipse31"
       r="10" />
    <text
       font-size="6.77333px"
       style="font-style:normal;font-weight:normal;font-family:sans-serif;text-anchor:middle;fill:#000000"
       x="410"
       y="573.00702"
       id="text32"><tspan
         x="410"
         y="573.00702"
         id="tspan32" /></text>
  </g>
  <g
     id="g33"
     transform="translate(-6.0869908,-402.99431)">
    <circle
       style="fill:none;fill-opacity:0;stroke:#000000;stroke-width:2"
       cx="410"
       cy="610"
       id="ellipse32"
       r="10" />
    <text
       font-size="6.77333px"
       style="font-style:normal;font-weight:normal;font-family:sans-serif;text-anchor:middle;fill:#000000"
       x="410"
       y="613.00702"
       id="text33"><tspan
         x="410"
         y="613.00702"
         id="tspan33" /></text>
  </g>
  <g
     id="g34"
     transform="translate(-6.0869908,-402.99431)">
    <circle
       style="fill:none;fill-opacity:0;stroke:#000000;stroke-width:2"
       cx="410"
       cy="650"
       id="ellipse33"
       r="10" />
    <text
       font-size="6.77333px"
       style="font-style:normal;font-weight:normal;font-family:sans-serif;text-anchor:middle;fill:#000000"
       x="410"
       y="653.00702"
       id="text34"><tspan
         x="410"
         y="653.00702"
         id="tspan34" /></text>
  </g>
  <g
     id="g35"
     transform="translate(-6.0869908,-402.99431)">
    <rect
       style="fill:none;fill-opacity:0;stroke:#000000;stroke-width:2"
       x="220"
       y="520"
       width="100"
       height="20"
       id="rect34" />
    <text
       font-size="7.90222px"
       style="font-style:normal;font-weight:normal;font-family:sans-serif;text-anchor:middle;fill:#000000"
       x="270"
       y="533.50897"
       id="text35"><tspan
         x="270"
         y="533.50897"
         id="tspan35">Priority discipline</tspan></text>
  </g>
  <g
     id="g36"
     transform="translate(-6.0869908,-402.99431)">
    <line
       style="fill:none;fill-opacity:0;stroke:#fac858;stroke-width:2"
       x1="156.36"
       y1="490"
       x2="215.26401"
       y2="517.76703"
       id="line35" />
    <polygon
       style="fill:#fac858"
       points="215.264,517.767 215.212,515.532 217.977,519.047 213.506,519.15 "
       id="polygon35" />
    <polygon
       style="fill:none;fill-opacity:0;stroke:#fac858;stroke-width:2"
       points="215.264,517.767 215.212,515.532 217.977,519.047 213.506,519.15 "
       id="polygon36" />
  </g>
  <g
     id="g38"
     transform="translate(-6.0869908,-402.99431)">
    <line
       style="fill:none;fill-opacity:0;stroke:#5470c6;stroke-width:2"
       x1="156.36"
       y1="570"
       x2="215.26401"
       y2="542.23297"
       id="line36" />
    <polygon
       style="fill:#5470c6"
       points="215.264,542.233 213.506,540.85 217.977,540.953 215.212,544.468 "
       id="polygon37" />
    <polygon
       style="fill:none;fill-opacity:0;stroke:#5470c6;stroke-width:2"
       points="215.264,542.233 213.506,540.85 217.977,540.953 215.212,544.468 "
       id="polygon38" />
  </g>
  <g
     id="g40"
     transform="translate(-6.0869908,-402.99431)">
    <line
       style="fill:none;fill-opacity:0;stroke:#91cc75;stroke-width:2"
       x1="156.36"
       y1="530"
       x2="214.76401"
       y2="530"
       id="line38" />
    <polygon
       style="fill:#91cc75"
       points="214.764,530 213.764,528 217.764,530 213.764,532 "
       id="polygon39" />
    <polygon
       style="fill:none;fill-opacity:0;stroke:#91cc75;stroke-width:2"
       points="214.764,530 213.764,528 217.764,530 213.764,532 "
       id="polygon40" />
  </g>
  <g
     id="g42"
     transform="translate(-6.0869908,-402.99431)">
    <line
       style="fill:none;fill-opacity:0;stroke:#fac858;stroke-width:2"
       x1="320"
       y1="540"
       x2="396.05899"
       y2="606.552"
       id="line40" />
    <polygon
       style="fill:#fac858"
       points="396.059,606.552 396.624,604.388 398.317,608.528 393.99,607.399 "
       id="polygon41" />
    <polygon
       style="fill:none;fill-opacity:0;stroke:#fac858;stroke-width:2"
       points="396.059,606.552 396.624,604.388 398.317,608.528 393.99,607.399 "
       id="polygon42" />
  </g>
  <g
     id="g44"
     transform="translate(-6.0869908,-402.99431)">
    <line
       style="fill:none;fill-opacity:0;stroke:#91cc75;stroke-width:2"
       x1="320"
       y1="530"
       x2="395.31699"
       y2="567.65802"
       id="line42" />
    <polygon
       style="fill:#91cc75"
       points="395.317,567.658 395.317,565.422 398,569 393.528,569 "
       id="polygon43" />
    <polygon
       style="fill:none;fill-opacity:0;stroke:#91cc75;stroke-width:2"
       points="395.317,567.658 395.317,565.422 398,569 393.528,569 "
       id="polygon44" />
  </g>
  <g
     id="g46"
     transform="translate(-6.0869908,-402.99431)">
    <line
       style="fill:none;fill-opacity:0;stroke:#91cc75;stroke-width:2"
       x1="320"
       y1="530"
       x2="394.76401"
       y2="530"
       id="line44" />
    <polygon
       style="fill:#91cc75"
       points="394.764,530 393.764,528 397.764,530 393.764,532 "
       id="polygon45" />
    <polygon
       style="fill:none;fill-opacity:0;stroke:#91cc75;stroke-width:2"
       points="394.764,530 393.764,528 397.764,530 393.764,532 "
       id="polygon46" />
  </g>
  <g
     id="g48"
     transform="translate(-6.0869908,-402.99431)">
    <line
       style="fill:none;fill-opacity:0;stroke:#5470c6;stroke-width:2"
       x1="320"
       y1="520"
       x2="397.25601"
       y2="645.54102"
       id="line46" />
    <polygon
       style="fill:#5470c6"
       points="397.256,645.541 398.435,643.641 398.828,648.096 395.028,645.737 "
       id="polygon47" />
    <polygon
       style="fill:none;fill-opacity:0;stroke:#5470c6;stroke-width:2"
       points="397.256,645.541 398.435,643.641 398.828,648.096 395.028,645.737 "
       id="polygon48" />
  </g>
  <g
     id="g50"
     transform="translate(-6.0869908,-402.99431)">
    <line
       style="fill:none;fill-opacity:0;stroke:#fac858;stroke-width:2"
       x1="320"
       y1="540"
       x2="395.56"
       y2="492.77499"
       id="line48" />
    <polygon
       style="fill:#fac858"
       points="395.56,492.775 393.652,491.609 398.104,491.185 395.772,495.001 "
       id="polygon49" />
    <polygon
       style="fill:none;fill-opacity:0;stroke:#fac858;stroke-width:2"
       points="395.56,492.775 393.652,491.609 398.104,491.185 395.772,495.001 "
       id="polygon50" />
  </g>
  <g
     id="g52"
     transform="translate(-6.0869908,-402.99431)">
    <line
       style="fill:none;fill-opacity:0;stroke:#5470c6;stroke-width:2"
       x1="320"
       y1="520"
       x2="396.05899"
       y2="453.448"
       id="line50" />
    <polygon
       style="fill:#5470c6"
       points="396.059,453.448 393.99,452.601 398.317,451.472 396.624,455.612 "
       id="polygon51" />
    <polygon
       style="fill:none;fill-opacity:0;stroke:#5470c6;stroke-width:2"
       points="396.059,453.448 393.99,452.601 398.317,451.472 396.624,455.612 "
       id="polygon52" />
  </g>
  <text
     font-size="7.90222px"
     style="font-style:normal;font-weight:normal;font-family:sans-serif;text-anchor:start;fill:#000000"
     x="373.91299"
     y="17.005688"
     id="text52"><tspan
       x="373.91299"
       y="17.005688"
       id="tspan52">Handlers (goroutines)</tspan></text>
  <text
     font-size="7.90222px"
     style="font-style:normal;font-weight:normal;font-family:sans-serif;text-anchor:start;fill:#000000"
     x="173.91301"
     y="57.005688"
     id="text53"><tspan
       x="173.91301"
       y="57.005688"
       id="tspan53">Data items are distributed in ratio of 3:2, 2:2, 1:2</tspan></text>
  <g
     id="g54"
     transform="translate(-6.0869908,-402.99431)">
    <polygon
       style="fill:none;fill-opacity:0;stroke:#000000;stroke-width:2"
       points="152.721,500 20,500 27.2794,480 160,480 "
       id="polygon53" />
    <text
       font-size="7.90222px"
       style="font-style:normal;font-weight:normal;font-family:sans-serif;text-anchor:middle;fill:#000000"
       x="90"
       y="493.509"
       id="text54"><tspan
         x="90"
         y="493.509"
         id="tspan54">Channel with data of priority 1</tspan></text>
  </g>
  <g
     id="g55"
     transform="translate(-6.0869908,-402.99431)">
    <polygon
       style="fill:none;fill-opacity:0;stroke:#000000;stroke-width:2"
       points="152.721,540 20,540 27.2794,520 160,520 "
       id="polygon54" />
    <text
       font-size="7.90222px"
       style="font-style:normal;font-weight:normal;font-family:sans-serif;text-anchor:middle;fill:#000000"
       x="90"
       y="533.50897"
       id="text55"><tspan
         x="90"
         y="533.50897"
         id="tspan55">Channel with data of priority 2</tspan></text>
  </g>
  <g
     id="g56"
     transform="translate(-6.0869908,-402.99431)">
    <polygon
       style="fill:none;fill-opacity:0;stroke:#000000;stroke-width:2"
       points="152.721,580 20,580 27.2794,560 160,560 "
       id="polygon55" />
    <text
       font-size="7.90222px"
       style="font-style:normal;font-weight:normal;font-family:sans-serif;text-anchor:middle;fill:#000000"
       x="90"
       y="573.50897"
       id="text56"><tspan
         x="90"
         y="573.50897"
         id="tspan56">Channel with data of priority 3</tspan></text>
  </g>
</svg>
