<?xml version="1.0" encoding="UTF-8" standalone="no"?>
<svg
   width="23cm"
   height="13cm"
   viewBox="14 8 442 256.06061"
   version="1.1"
   id="svg56"
   sodipodi:docname="operation-principle-321.svg"
   inkscape:version="1.4 (e7c3feb100, 2024-10-09)"
   xmlns:inkscape="http://www.inkscape.org/namespaces/inkscape"
   xmlns:sodipodi="http://sodipodi.sourceforge.net/DTD/sodipodi-0.dtd"
   xmlns="http://www.w3.org/2000/svg"
   xmlns:svg="http://www.w3.org/2000/svg">
  <defs
     id="defs56" />
  <sodipodi:namedview
     id="namedview56"
     pagecolor="#ffffff"
     bordercolor="#000000"
     borderopacity="0.25"
     inkscape:showpageshadow="2"
     inkscape:pageopacity="0.0"
     inkscape:pagecheckerboard="0"
     inkscape:deskcolor="#d1d1d1"
     inkscape:document-units="cm"
     inkscape:zoom="0.70395202"
     inkscape:cx="422.61403"
     inkscape:cy="623.62205"
     inkscape:window-width="1920"
     inkscape:window-height="1131"
     inkscape:window-x="0"
     inkscape:window-y="0"
     inkscape:window-maximized="1"
     inkscape:current-layer="svg56" />
  <g
     id="g1"
     transform="translate(-6.0869908,-2.994313)">
    <circle
       style="fill:none;fill-opacity:0;stroke:#000000;stroke-width:2"
       cx="410"
       cy="50"
       id="ellipse1"
       r="10" />
    <text
       font-size="6.77333px"
       style="font-style:normal;font-weight:normal;font-family:sans-serif;text-anchor:middle;fill:#000000"
       x="410"
       y="53.007301"
       id="text1"><tspan
         x="410"
         y="53.007301"
         id="tspan1" /></text>
  </g>
  <g
     id="g2"
     transform="translate(-6.0869908,-2.994313)">
    <circle
       style="fill:none;fill-opacity:0;stroke:#000000;stroke-width:2"
       cx="410"
       cy="90"
       id="ellipse2"
       r="10" />
    <text
       font-size="6.77333px"
       style="font-style:normal;font-weight:normal;font-family:sans-serif;text-anchor:middle;fill:#000000"
       x="410"
       y="93.007301"
       id="text2"><tspan
         x="410"
         y="93.007301"
         id="tspan2" /></text>
  </g>
  <g
     id="g3"
     transform="translate(-6.0869908,-2.994313)">
    <circle
       style="fill:none;fill-opacity:0;stroke:#000000;stroke-width:2"
       cx="410"
       cy="130"
       id="ellipse3"
       r="10" />
    <text
       font-size="6.77333px"
       style="font-style:normal;font-weight:normal;font-family:sans-serif;text-anchor:middle;fill:#000000"
       x="410"
       y="133.007"
       id="text3"><tspan
         x="410"
         y="133.007"
         id="tspan3" /></text>
  </g>
  <g
     id="g4"
     transform="translate(-6.0869908,-2.994313)">
    <circle
       style="fill:none;fill-opacity:0;stroke:#000000;stroke-width:2"
       cx="410"
       cy="170"
       id="ellipse4"
       r="10" />
    <text
       font-size="6.77333px"
       style="font-style:normal;font-weight:normal;font-family:sans-serif;text-anchor:middle;fill:#000000"
       x="410"
       y="173.007"
       id="text4"><tspan
         x="410"
         y="173.007"
         id="tspan4" /></text>
  </g>
  <g
     id="g5"
     transform="translate(-6.0869908,-2.994313)">
    <circle
       style="fill:none;fill-opacity:0;stroke:#000000;stroke-width:2"
       cx="410"
       cy="210"
       id="ellipse5"
       r="10" />
    <text
       font-size="6.77333px"
       style="font-style:normal;font-weight:normal;font-family:sans-serif;text-anchor:middle;fill:#000000"
       x="410"
       y="213.007"
       id="text5"><tspan
         x="410"
         y="213.007"
         id="tspan5" /></text>
  </g>
  <g
     id="g6"
     transform="translate(-6.0869908,-2.994313)">
    <circle
       style="fill:none;fill-opacity:0;stroke:#000000;stroke-width:2"
       cx="410"
       cy="250"
       id="ellipse6"
       r="10" />
    <text
       font-size="6.77333px"
       style="font-style:normal;font-weight:normal;font-family:sans-serif;text-anchor:middle;fill:#000000"
       x="410"
       y="253.007"
       id="text6"><tspan
         x="410"
         y="253.007"
         id="tspan6" /></text>
  </g>
  <g
     id="g7"
     transform="translate(-6.0869908,-2.994313)">
    <rect
       style="fill:none;fill-opacity:0;stroke:#000000;stroke-width:2"
       x="220"
       y="120"
       width="100"
       height="20"
       id="rect6" />
    <text
       font-size="7.90222px"
       style="font-style:normal;font-weight:normal;font-family:sans-serif;text-anchor:middle;fill:#000000"
       x="270"
       y="133.509"
       id="text7"><tspan
         x="270"
         y="133.509"
         id="tspan7">Priority discipline</tspan></text>
  </g>
  <g
     id="g8"
     transform="translate(-6.0869908,-2.994313)">
    <polygon
       style="fill:none;fill-opacity:0;stroke:#000000;stroke-width:2"
       points="152.721,100 20,100 27.2794,80 160,80 "
       id="polygon7" />
    <text
       font-size="7.90222px"
       style="font-style:normal;font-weight:normal;font-family:sans-serif;text-anchor:middle;fill:#000000"
       x="90"
       y="93.508499"
       id="text8"><tspan
         x="90"
         y="93.508499"
         id="tspan8">Channel with data of priority 1</tspan></text>
  </g>
  <g
     id="g9"
     transform="translate(-6.0869908,-2.994313)">
    <polygon
       style="fill:none;fill-opacity:0;stroke:#000000;stroke-width:2"
       points="152.721,140 20,140 27.2794,120 160,120 "
       id="polygon8" />
    <text
       font-size="7.90222px"
       style="font-style:normal;font-weight:normal;font-family:sans-serif;text-anchor:middle;fill:#000000"
       x="90"
       y="133.509"
       id="text9"><tspan
         x="90"
         y="133.509"
         id="tspan9">Channel with data of priority 2</tspan></text>
  </g>
  <g
     id="g10"
     transform="translate(-6.0869908,-2.994313)">
    <polygon
       style="fill:none;fill-opacity:0;stroke:#000000;stroke-width:2"
       points="152.721,180 20,180 27.2794,160 160,160 "
       id="polygon9" />
    <text
       font-size="7.90222px"
       style="font-style:normal;font-weight:normal;font-family:sans-serif;text-anchor:middle;fill:#000000"
       x="90"
       y="173.509"
       id="text10"><tspan
         x="90"
         y="173.509"
         id="tspan10">Channel with data of priority 3</tspan></text>
  </g>
  <g
     id="g11"
     transform="translate(-6.0869908,-2.994313)">
    <line
       style="fill:none;fill-opacity:0;stroke:#fac858;stroke-width:2"
       x1="156.36"
       y1="90"
       x2="215.26401"
       y2="117.767"
       id="line10" />
    <polygon
       style="fill:#fac858"
       points="215.264,117.767 215.212,115.532 217.977,119.047 213.506,119.15 "
       id="polygon10" />
    <polygon
       style="fill:none;fill-opacity:0;stroke:#fac858;stroke-width:2"
       points="215.264,117.767 215.212,115.532 217.977,119.047 213.506,119.15 "
       id="polygon11" />
  </g>
  <g
     id="g13"
     transform="translate(-6.0869908,-2.994313)">
    <line
       style="fill:none;fill-opacity:0;stroke:#5470c6;stroke-width:2"
       x1="156.36"
       y1="170"
       x2="215.26401"
       y2="142.233"
       id="line11" />
    <polygon
       style="fill:#5470c6"
       points="215.264,142.233 213.506,140.85 217.977,140.953 215.212,144.468 "
       id="polygon12" />
    <polygon
       style="fill:none;fill-opacity:0;stroke:#5470c6;stroke-width:2"
       points="215.264,142.233 213.506,140.85 217.977,140.953 215.212,144.468 "
       id="polygon13" />
  </g>
  <g
     id="g15"
     transform="translate(-6.0869908,-2.994313)">
    <line
       style="fill:none;fill-opacity:0;stroke:#91cc75;stroke-width:2"
       x1="156.36"
       y1="130"
       x2="214.76401"
       y2="130"
       id="line13" />
    <polygon
       style="fill:#91cc75"
       points="214.764,130 213.764,128 217.764,130 213.764,132 "
       id="polygon14" />
    <polygon
       style="fill:none;fill-opacity:0;stroke:#91cc75;stroke-width:2"
       points="214.764,130 213.764,128 217.764,130 213.764,132 "
       id="polygon15" />
  </g>
  <g
     id="g17"
     transform="translate(-6.0869908,-2.994313)">
    <line
       style="fill:none;fill-opacity:0;stroke:#fac858;stroke-width:2"
       x1="320"
       y1="140"
       x2="396.05899"
       y2="206.552"
       id="line15" />
    <polygon
       style="fill:#fac858"
       points="396.059,206.552 396.624,204.388 398.317,208.528 393.99,207.399 "
       id="polygon16" />
    <polygon
       style="fill:none;fill-opacity:0;stroke:#fac858;stroke-width:2"
       points="396.059,206.552 396.624,204.388 398.317,208.528 393.99,207.399 "
       id="polygon17" />
  </g>
  <g
     id="g19"
     transform="translate(-6.0869908,-2.994313)">
    <line
       style="fill:none;fill-opacity:0;stroke:#91cc75;stroke-width:2"
       x1="320"
       y1="130"
       x2="395.31699"
       y2="167.658"
       id="line17" />
    <polygon
       style="fill:#91cc75"
       points="395.317,167.658 395.317,165.422 398,169 393.528,169 "
       id="polygon18" />
    <polygon
       style="fill:none;fill-opacity:0;stroke:#91cc75;stroke-width:2"
       points="395.317,167.658 395.317,165.422 398,169 393.528,169 "
       id="polygon19" />
  </g>
  <g
     id="g21"
     transform="translate(-6.0869908,-2.994313)">
    <line
       style="fill:none;fill-opacity:0;stroke:#91cc75;stroke-width:2"
       x1="320"
       y1="130"
       x2="394.76401"
       y2="130"
       id="line19" />
    <polygon
       style="fill:#91cc75"
       points="394.764,130 393.764,128 397.764,130 393.764,132 "
       id="polygon20" />
    <polygon
       style="fill:none;fill-opacity:0;stroke:#91cc75;stroke-width:2"
       points="394.764,130 393.764,128 397.764,130 393.764,132 "
       id="polygon21" />
  </g>
  <g
     id="g23"
     transform="translate(-6.0869908,-2.994313)">
    <line
       style="fill:none;fill-opacity:0;stroke:#5470c6;stroke-width:2"
       x1="320"
       y1="120"
       x2="397.25601"
       y2="245.541"
       id="line21" />
    <polygon
       style="fill:#5470c6"
       points="397.256,245.541 398.435,243.641 398.828,248.096 395.028,245.737 "
       id="polygon22" />
    <polygon
       style="fill:none;fill-opacity:0;stroke:#5470c6;stroke-width:2"
       points="397.256,245.541 398.435,243.641 398.828,248.096 395.028,245.737 "
       id="polygon23" />
  </g>
  <g
     id="g25"
     transform="translate(-6.0869908,-2.994313)">
    <line
       style="fill:none;fill-opacity:0;stroke:#5470c6;stroke-width:2"
       x1="320"
       y1="120"
       x2="395.09698"
       y2="91.838501"
       id="line23" />
    <polygon
       style="fill:#5470c6"
       points="395.097,91.8385 393.459,90.317 397.906,90.7851 394.863,94.0623 "
       id="polygon24" />
    <polygon
       style="fill:none;fill-opacity:0;stroke:#5470c6;stroke-width:2"
       points="395.097,91.8385 393.459,90.317 397.906,90.7851 394.863,94.0623 "
       id="polygon25" />
  </g>
  <g
     id="g27"
     transform="translate(-6.0869908,-2.994313)">
    <line
       style="fill:none;fill-opacity:0;stroke:#5470c6;stroke-width:2"
       x1="320"
       y1="120"
       x2="396.05899"
       y2="53.448002"
       id="line25" />
    <polygon
       style="fill:#5470c6"
       points="396.059,53.448 393.99,52.6013 398.317,51.4725 396.624,55.6116 "
       id="polygon26" />
    <polygon
       style="fill:none;fill-opacity:0;stroke:#5470c6;stroke-width:2"
       points="396.059,53.448 393.99,52.6013 398.317,51.4725 396.624,55.6116 "
       id="polygon27" />
  </g>
  <text
     font-size="7.90222px"
     style="font-style:normal;font-weight:normal;font-family:sans-serif;text-anchor:start;fill:#000000"
     x="373.91299"
     y="17.005688"
     id="text27"><tspan
       x="373.91299"
       y="17.005688"
       id="tspan27">Handlers (goroutines)</tspan></text>
  <text
     font-size="7.90222px"
     style="font-style:normal;font-weight:normal;font-family:sans-serif;text-anchor:start;fill:#000000"
     x="173.91301"
     y="57.005688"
     id="text28"><tspan
       x="173.91301"
       y="57.005688"
       id="tspan28">Data items are distributed in ratio of 3:3, 2:2, 1:1</tspan></text>
</svg>
